<?xml version="1.0" standalone="no"?>
<svg xmlns:xlink="http://www.w3.org/1999/xlink" id="wave" style="transform:rotate(180deg); transition: 0.3s" viewBox="0 0 1440 190" version="1.1" xmlns="http://www.w3.org/2000/svg"><defs><linearGradient id="sw-gradient-0" x1="0" x2="0" y1="1" y2="0"><stop stop-color="rgba(244, 244, 244, 1)" offset="0%"/><stop stop-color="rgba(244, 244, 244, 1)" offset="100%"/></linearGradient></defs><path style="transform:translate(0, 0px); opacity:1" fill="url(#sw-gradient-0)" d="M0,19L60,28.5C120,38,240,57,360,53.8C480,51,600,25,720,15.8C840,6,960,13,1080,28.5C1200,44,1320,70,1440,85.5C1560,101,1680,108,1800,95C1920,82,2040,51,2160,34.8C2280,19,2400,19,2520,44.3C2640,70,2760,120,2880,145.7C3000,171,3120,171,3240,145.7C3360,120,3480,70,3600,60.2C3720,51,3840,82,3960,85.5C4080,89,4200,63,4320,72.8C4440,82,4560,127,4680,142.5C4800,158,4920,146,5040,123.5C5160,101,5280,70,5400,69.7C5520,70,5640,101,5760,98.2C5880,95,6000,57,6120,47.5C6240,38,6360,57,6480,79.2C6600,101,6720,127,6840,117.2C6960,108,7080,63,7200,47.5C7320,32,7440,44,7560,53.8C7680,63,7800,70,7920,69.7C8040,70,8160,63,8280,63.3C8400,63,8520,70,8580,72.8L8640,76L8640,190L8580,190C8520,190,8400,190,8280,190C8160,190,8040,190,7920,190C7800,190,7680,190,7560,190C7440,190,7320,190,7200,190C7080,190,6960,190,6840,190C6720,190,6600,190,6480,190C6360,190,6240,190,6120,190C6000,190,5880,190,5760,190C5640,190,5520,190,5400,190C5280,190,5160,190,5040,190C4920,190,4800,190,4680,190C4560,190,4440,190,4320,190C4200,190,4080,190,3960,190C3840,190,3720,190,3600,190C3480,190,3360,190,3240,190C3120,190,3000,190,2880,190C2760,190,2640,190,2520,190C2400,190,2280,190,2160,190C2040,190,1920,190,1800,190C1680,190,1560,190,1440,190C1320,190,1200,190,1080,190C960,190,840,190,720,190C600,190,480,190,360,190C240,190,120,190,60,190L0,190Z"/></svg>